# xmcd
#
# Track frame offsets:
#	150
#	26136
#	43962
#	62220
#	79120
#	94190
#	107780
#	127717
#	138928
#	154908
#	172643
#	191690
#	211638
#	224899
#	241239
#	252019
#	270902
#	291893
#	321710
#	341705
#
# Disc length: 4783 seconds
#
# Revision: 1
# Processed by: cddbd v1.5.2PL0 Copyright (c) Steve Scherf et al.
# Submitted via: audiograbber 1.83.01
#
DISCID=2912ad14
DTITLE=100 Rock Hits - 100 Rock Hits [CD5)
DYEAR=2008
DGENRE=Rock
TTITLE0=Santana-Santana Jam
TTITLE1=John Bon Jovi-Who Said It Would Last Forever
TTITLE2=Emerson Like and Palmer-Tiger In A Spotlight
TTITLE3=Roger Chapman-Who Pulled The Night Down
TTITLE4=Eric Burdon-We Gotta Get Out Of The Place
TTITLE5=The Troggs.-Strange Movies
TTITLE6=Romantics-Talking In Your Sleep (Live)
TTITLE7=Jimmy Page-Think It Over
TTITLE8=Steely Dan-Ida Lee
TTITLE9=Iggy Pop-TV Eye (Live)
TTITLE10=Humble Pie-Natural Born Boogie
TTITLE11=Janis Joplin-Ball and Chain
TTITLE12=Johnny Winter-Five After 4 A.M
TTITLE13=Saxon-Fire In The Sky
TTITLE14=Rod Steward-Just Like ITreat You
TTITLE15=Steve Miller Band- Space Cowboy (Live)
TTITLE16=Chuck Barry-Mean Old World
TTITLE17=Rick Wakeman-The Forest (Live)
TTITLE18=Eric Clapton &Jimmy Page-Wang Dang Doodle
TTITLE19=Wishboone Ash-Outwourd Bund (Live)
EXTD=
EXTT0=
EXTT1=
EXTT2=
EXTT3=
EXTT4=
EXTT5=
EXTT6=
EXTT7=
EXTT8=
EXTT9=
EXTT10=
EXTT11=
EXTT12=
EXTT13=
EXTT14=
EXTT15=
EXTT16=
EXTT17=
EXTT18=
EXTT19=
PLAYORDER=
